# xmcd
#
# Track frame offsets: 
#        150
#        12607
#        23690
#        36190
#        47795
#        57052
#        68607
#        81587
#        91737
#        102397
#        115147
#        127810
#        139550
#        151570
#        162725
#        173890
#        186305
#        196327
#        207977
#        220135
#        232052
#        244534
#        258477
#        269805
#        281477
#        291125
#
# Disc length: 4056 seconds
#
# Revision: 3
# Processed by: cddbd v1.5.2PL0 Copyright (c) Steve Scherf et al.
# Submitted via: ExactAudioCopyFreeDBPlugin 1.0
#
DISCID=7a0fd61a
DTITLE=Various Artist - The King R&B Box Set
DYEAR=1995
DGENRE=Rhythm and Blues
TTITLE0=Sonny Thompson - Mellow Blues, Part 1
TTITLE1=Wynonie Harris - Lovin' Machine (with Todd Rhodes Orchestra)
TTITLE2=Tiny Bradshaw - The Train Kept A'Rollin'
TTITLE3=The Swallows - It Ain't the Meat
TTITLE4=Roy Byrd (Professor Longhair) - Rockin' with Fes
TTITLE5=The Swallows - Beside You
TTITLE6=Sonny Thompson - I'll Drown in My Tears
TTITLE7=Dave Bartholomew - My Ding-a-Ling
TTITLE8=The Dominoes - Have Mercy Baby
TTITLE9=Lil Greenwood and The Four Jacks - Grandpaw Can Boogie Too
TTITLE10=The Royals - Moon Rise
TTITLE11=Todd Rhodes - Trying
TTITLE12=Little Willie Littlefield - K.C. Loving
TTITLE13=Moose Jackson - Big Ten Inch Record
TTITLE14=Annisteen Allen - Baby, I'm Doing It
TTITLE15=Hot Lips Page - Jungle King
TTITLE16=Little Esther - Cherry Wine
TTITLE17=Big Jay McNeely - Nervous Man, Nervous
TTITLE18=Billy Ward and His Dominoes - Rags to Riches
TTITLE19=Young John Watson - Space Guitar
TTITLE20=The Midnighters - Work with Me Annie
TTITLE21=The Platters - Only You (And You Alone)
TTITLE22=The Midnighters - Sexy Ways
TTITLE23=The Charms - Hearts of Stone
TTITLE24=Lula Reed - Rock Love
TTITLE25=Jack Dupree and Mr. Bear - Walking the Blues
EXTD=
EXTT0=
EXTT1=
EXTT2=
EXTT3=
EXTT4=
EXTT5=
EXTT6=
EXTT7=
EXTT8=
EXTT9=
EXTT10=
EXTT11=
EXTT12=
EXTT13=
EXTT14=
EXTT15=
EXTT16=
EXTT17=
EXTT18=
EXTT19=
EXTT20=
EXTT21=
EXTT22=
EXTT23=
EXTT24=
EXTT25=
PLAYORDER=
